<?xml version="1.0" encoding="utf-8"?>
<!-- Generator: Adobe Illustrator 18.0.0, SVG Export Plug-In . SVG Version: 6.00 Build 0)  -->
<!DOCTYPE svg PUBLIC "-//W3C//DTD SVG 1.1//EN" "http://www.w3.org/Graphics/SVG/1.1/DTD/svg11.dtd">
<svg version="1.1" id="Layer_1" xmlns="http://www.w3.org/2000/svg" xmlns:xlink="http://www.w3.org/1999/xlink" x="0px" y="0px"
	 viewBox="0 0 432 432" enable-background="new 0 0 432 432" xml:space="preserve">
<g>
	<path fill="#23261F" d="M328.3,162.3v56.9h-14.4V374H118.1V219.2h-14.4v-56.9h56c-19-18.7-25.3-47.9-19.6-73.5
		c3.7-16,17.9-31.3,35.6-28.4c20.2,3.5,32.9,22.7,39.8,40.6c7.4-15,17-30,31.8-38.7c10-5.3,24.2-6.9,33,1.5
		c10.3,9.7,13.6,24.4,13.8,38.1c-0.8,20.6-7.4,40.8-18.8,58c-0.2,0.1-0.4,0.2-0.6,0.4c-0.6,0.7-1.3,1.3-1.9,1.9H328.3z"/>
	<path fill="#F9F9FA" d="M178.9,115.5c-0.3-12.6,3.5-24.7,14.2-33c2.3,2.4,4.4,4.9,6.3,7.6c1.9,2.7,3.6,5.6,5,8.6
		c0.4,0.7,0.7,1.5,1,2.3c1.6,3.8,2.9,7.8,3.7,11.8c0.3,1.6,0.6,3.2,0.7,4.9c-2.8,14.9-5.5,30.3-1.8,45.2h-10.5
		c-4.4-4-7.5-10.3-10.3-15.3c-0.9-1.9-1.8-3.9-2.6-5.9c-0.5-1.4-1.1-2.7-1.5-4.1c-0.5-1.4-0.9-2.8-1.3-4.3c-0.2-0.7-0.4-1.4-0.6-2.2
		c-0.4-1.5-0.7-2.9-1-4.4C179.4,122.9,179,119.2,178.9,115.5z M222.7,162.8c0-0.1,0.1-0.1,0.1-0.2c2-3.2,3.8-6.5,5.4-9.9
		c0.8-1.7,1.6-3.4,2.3-5.1c2.9-6.9,5-14.1,6.4-21.5c2.9-14.7,3.2-30,1.4-44.9c-16.5,17.6-25.3,41.9-25.7,65.9
		c0.5,5,0.3,11.1,2.7,15.7H222.7z"/>
	<path fill="#ADBB8D" d="M144.7,112.8c0-1.3-0.1-2.6,0-3.9c0-1.3,0.1-2.6,0.2-3.9c0.1-0.9,0.2-1.7,0.3-2.6c0.1-0.9,0.2-1.7,0.4-2.6
		c0.2-1.3,0.5-2.6,0.8-3.8c0.2-0.8,0.4-1.7,0.7-2.5c1.8-6.2,4.9-12,9.6-16.8c8.2-9,24.3-7.4,31.8,1.5c-2.7,2-5.1,4.3-7.1,6.8
		c-0.7,0.8-1.3,1.7-1.9,2.6c-1.8,2.7-3.2,5.6-4.3,8.6c-0.9,2.5-1.6,5.1-2.1,7.8c-0.1,0.5-0.2,1.1-0.3,1.6c-0.2,1.1-0.3,2.2-0.4,3.2
		c-0.3,3.3-0.3,6.5-0.1,9.8c0.1,1.1,0.2,2.2,0.3,3.2c0.1,1.1,0.3,2.1,0.5,3.2c1.7,13.8,7.8,26.4,15.4,37.8H165
		c-7.8-8.4-13.4-18.8-16.7-29.9c-0.7-2.3-1.3-4.6-1.8-7c-0.3-1.2-0.5-2.4-0.7-3.5c-0.4-2.4-0.7-4.7-0.9-7.1
		C144.8,114.5,144.8,113.6,144.7,112.8z M266.8,162.8c1.5-2.2,3-4.4,4.4-6.7c0.7-1.2,1.4-2.4,2.1-3.6c0.7-1.2,1.3-2.4,1.9-3.7
		c1.2-2.5,2.4-5,3.5-7.6c0.5-1.3,1-2.6,1.5-3.9c0.5-1.3,0.9-2.6,1.4-3.9c1.9-5.9,3.3-12,4.1-18.2c0.2-1.4,0.3-2.7,0.5-4.1
		c0.2-2.8,0.4-5.5,0.4-8.3c-0.2-2.3-0.4-4.6-0.8-7c-0.2-1.2-0.4-2.4-0.6-3.6c-0.1-0.4-0.2-0.8-0.3-1.2c-0.4-1.6-0.8-3.1-1.3-4.6
		c-0.3-0.8-0.5-1.5-0.8-2.3c-1.3-3.3-3.1-6.4-5.4-9c-0.3-0.3-0.5-0.6-0.8-0.8c-0.5-0.6-1.1-1.1-1.7-1.6c-0.3-0.2-0.6-0.5-0.9-0.7
		c-1-0.7-2-1.3-3.1-1.9c-2.4-1.2-4.8-1.7-7.3-1.8c-0.6,0-1.2,0-1.8,0c-2.1,0.2-4.2,0.6-6.3,1.4c-1.5,0.5-2.9,1.1-4.3,1.8
		c-2,1-3.9,2.1-5.7,3.3c-0.5,0.3-1,0.7-1.5,1c-0.3,0.2-0.5,0.3-0.8,0.5c0.2,0.9,0.5,1.9,0.7,2.8c0.6,2.8,1.1,5.7,1.5,8.6
		c0.3,1.9,0.5,3.8,0.6,5.7c0.2,2.9,0.4,5.8,0.4,8.6c0.1,7.7-0.6,15.4-2,22.9c-0.7,3.8-1.5,7.5-2.6,11.3c-1.5,5.6-3.4,11.1-5.7,16.4
		c-0.4,0.9-0.8,1.8-1.1,2.7c-0.8,1.8-1.6,3.5-2.5,5.2c-0.3,0.7-0.7,1.3-1,2H266.8z M175.3,213.4h81.4v-0.3h6.4v-44.7h-94.2v44.7h6.4
		V213.4z M190.1,218.9v149h51.9v-149H190.1z"/>
	<path fill="#EE7879" d="M273.2,213.1h-3.5v-44.7h51.5v44.7h-3.5v0.3h-44.5V213.1z M114.3,213.4h44.5v-0.3h3.5v-44.7h-51.5v44.7h3.5
		V213.4z M247.6,218.9v149h59.4v-149H247.6z M124.9,218.9v149h59.4v-149H124.9z"/>
</g>
</svg>
